 http://img638.imageshack.us/img638/6363/m3o4ub0iph8oa1236ehi.jpg

Country.......: USA
Genre.........: Horror, Thriller, Sci-Fi
Date release..: 23.10.2010 [World]
Director......: Anthony G. Sumner
Writers.......: Anthony G. Sumner, Eric Richter
Duration......: 108 min.
More..........: http://www.imdb.com/title/tt1584730
Trailer.......: http://www.imdb.com/video/screenplay/vi3780680985
Trailer.......:

Pilot :
Sexual Parasites, Disembowelment, Zombies, Serial Killers, Demon Children, Violent Vixens, Rabid Office Workers and Angry Embryos all spring to life from the flesh covered sketch books featured in Anthony G. Sumner's (Gallery of Fear) SLICES OF LIFE. Mira (Kaylee Williams) awakens in front of a seedy roadside motel with amnesia. She searches for clues to her identity in the pages of three bound sketchbooks, in which each book represents a different aspect of everyday life, maybe her life. WORK LIFE A lowly clerk at a nano technology firm unleashes a deadly virus at the office headquarters, giving new meaning to the term corporate zombie. HOME LIFE As local girls begin to disappear, a young pregnant woman is haunted by visions of evil demonic children hell bent on stealing her unborn fetus. SEX LIFE A young brother and sister on the run from a sexually abusive home life, take refuge in a countryside Victorian manor- only to discover the monsters hidden in this house have been looking for a new home. Convinced that the characters from these books are roaming around the motel, Mira's reality begins to crumble. Are these visions real or is she going insane? Desperate, Mira turns to the motel caretakers (Marv Blauvelt and Helene Alter-Dyche), only to discover the true evil bound in the flesh covered books and the destiny they hold for her.

Cats :
Kaylee Williams   	 ...  	Mira (segment [Sketcher]
Jack Guasta 	... 	William Robert Moss (segment [W.O.R.M]
Toya Turner 	... 	Vonda (segment [Amber Alert]
Deneen Melody 	... 	Susan Ballard (segment [Pink Snapper]
Marv Blauvelt 	... 	Tiny (segment [Sketcher]
Thurston Hill 	... 	Lamont (segment [Amber Alert]
Galen Schloming 	... 	Eric Ballard (segment [Pink Snapper]
Judith Lesser 	... 	Elizabeth Nadasdy (segment [Pink Snapper]
Bruce Varner 	... 	Edgar Nadasdy (segment [Pink Snapper]
Helene Alter-Dyche 	... 	Irma (segment [Sketcher]
Alan Rowe Kelly 	... 	Web Cam Vamp [segment "W.O.R.M]
Holly Fishburn 	... 	Newscaster
Jamia Vinci 	... 	Ally (segment [Amber Alert]
Mike Tracy 	... 	Jack Ballard (segment [Pink Snapper]
Kate Roberts 	... 	Rebecca (segment [Amber Alert]

Data Technical :
!!! SAMPLE !!!
Audio.....: English
Subtitles.: None
Format                           : AVI
Format/Info                      : Audio Video Interleave
File size                        : 701 MiB
Duration                         : 1h 47mn
Overall bit rate                 : 910 Kbps
Writing application              : VirtualDubMod 1.5.10.2 (build 2540/release)
Writing library                  : VirtualDubMod build 2540/release
Video
ID                               : 0
Format                           : MPEG-4 Visual
Format profile                   : Advanced Simple@L5
Format settings, BVOP            : Yes
Format settings, QPel            : No
Format settings, GMC             : No warppoints
Format settings, Matrix          : Default (H.263)
Codec ID                         : XVID
Codec ID/Hint                    : XviD
Duration                         : 1h 47mn
Bit rate                         : 769 Kbps
Width                            : 608 pixels
Height                           : 336 pixels
Display aspect ratio             : 16:9
Frame rate                       : 23.976 fps
Color space                      : YUV
Chroma subsampling               : 4:2:0
Bit depth                        : 8 bits
Scan type                        : Progressive
Bits/(Pixel*Frame)               : 0.157
Stream size                      : 592 MiB (84%)
Writing library                  : XviD 63
Audio
ID                               : 1
Format                           : MPEG Audio
Format version                   : Version 1
Format profile                   : Layer 3
Mode                             : Joint stereo
Mode extension                   : MS Stereo
Codec ID                         : 55
Codec ID/Hint                    : MP3
Duration                         : 1h 47mn
Bit rate mode                    : Variable
Bit rate                         : 128 Kbps
Channel(s)                       : 2 channels
Sampling rate                    : 48.0 KHz
Stream size                      : 99.2 MiB (14%)
Alignment                        : Aligned on interleaves
Interleave, duration             : 24 ms (0.58 video frame)
Interleave, preload duration     : 143 ms
Writing library                  : LAME3.90.
Encoding settings                : -m j -V 4 -q 2 -lowpass 17.6 --abr 128

Screen : 
http://img854.imageshack.us/img854/7781/slicesoflife2010s1.jpg 
http://img231.imageshack.us/img231/846/slicesoflife2010s2.jpg 
http://img838.imageshack.us/img838/5590/slicesoflife2010s3.jpg 
http://img708.imageshack.us/img708/492/slicesoflife2010s4.jpg 
http://img541.imageshack.us/img541/6156/slicesoflife2010s5.jpg